<svg width="100" height="100" viewBox="0 0 100 100" fill="none" xmlns="http://www.w3.org/2000/svg">
<g id="Shield">
<path id="Vector" d="M49.9826 99.9326C37.2841 99.9326 24.5959 95.103 14.9263 85.4334C-4.40252 66.1046 -4.40252 34.6601 14.9263 15.3312C24.2941 5.96348 36.7428 0.811188 49.9826 0.811188C63.2224 0.811188 75.6711 5.96348 85.0389 15.3312C104.368 34.6601 104.368 66.1046 85.0389 85.4334C75.3797 95.0926 62.6811 99.9326 49.9826 99.9326ZM17.5285 82.8312C35.4209 100.724 64.5339 100.724 82.4263 82.8312C100.319 64.9388 100.319 35.8259 82.4263 17.9334C73.7559 9.26301 62.2335 4.49589 49.9722 4.49589C37.7108 4.49589 26.1884 9.27342 17.5181 17.9334C-0.374391 35.8259 -0.374391 64.9388 17.5181 82.8312H17.5285Z" fill="#9DADF2"/>
<g id="Group">
<path id="Vector_2" d="M49.3269 68.9357C49.5039 69.3625 49.9202 69.6123 50.3574 69.6123C50.5031 69.6123 50.6489 69.5811 50.7946 69.529C54.2919 68.0614 57.4769 65.7923 59.9958 62.9612C60.4017 62.5032 60.3601 61.7954 59.9021 61.3895C59.4441 60.9835 58.7364 61.0252 58.3304 61.4832C56.0301 64.0749 53.1261 66.1462 49.9306 67.4785C49.3686 67.7179 49.0979 68.3736 49.3373 68.9357H49.3269Z" fill="#9DADF2"/>
<path id="Vector_3" d="M68.8727 33.2444L50.3869 25.8543C50.1163 25.7502 49.8249 25.7502 49.5543 25.8543L31.0685 33.2444C30.6418 33.411 30.3711 33.8169 30.3711 34.2749V47.5146C30.3919 59.7344 38.1151 70.778 49.5855 74.9831C49.7104 75.0247 49.8353 75.0455 49.9706 75.0455C50.1059 75.0455 50.2308 75.0247 50.3557 74.9831C61.826 70.7676 69.5492 59.7344 69.5701 47.5146V34.2749C69.5701 33.8169 69.2994 33.411 68.8727 33.2444ZM67.3426 47.5146C67.3218 58.6311 60.348 68.7587 49.981 72.7452C39.614 68.7587 32.6298 58.6311 32.609 47.5146V35.0347L49.981 28.0922L67.3426 35.0347V47.5146Z" fill="#9DADF2"/>
<path id="Vector_4" d="M42.2585 34.9826C41.9878 34.8681 41.686 34.8681 41.4049 34.9826L37.0021 36.7417C36.5754 36.9082 36.3047 37.3142 36.3047 37.7721V42.4664C36.3047 43.0806 36.8043 43.5802 37.4184 43.5802C38.0325 43.5802 38.5322 43.0806 38.5322 42.4664V38.5319L42.2272 37.0539C42.5082 36.9394 42.7164 36.7313 42.8413 36.4502C42.9558 36.1796 42.9558 35.8777 42.8413 35.5967C42.7268 35.3157 42.5187 35.1075 42.248 34.9826H42.2585Z" fill="#9DADF2"/>
<path id="Vector_5" d="M78.1259 22.2321C70.6109 14.7067 60.6082 10.5745 49.9706 10.5745C39.333 10.5745 29.3407 14.7171 21.8152 22.2321C6.29596 37.7514 6.29596 63.0132 21.8152 78.5428C29.5801 86.3077 39.7701 90.1797 49.9706 90.1797C60.171 90.1797 70.3611 86.2973 78.1259 78.5428C93.6452 63.0236 93.6452 37.7618 78.1259 22.2321ZM72.6198 47.5147C72.651 61.6392 63.6267 73.9943 50.1684 78.2722C50.0434 78.3138 49.9081 78.3138 49.7728 78.2722C36.3144 73.9943 27.2902 61.6392 27.3214 47.5147V31.8913C27.3214 31.6311 27.4775 31.3918 27.7273 31.2877L49.7312 22.4924C49.8041 22.4611 49.8873 22.4508 49.9706 22.4508C50.0539 22.4508 50.1371 22.4611 50.21 22.4924L72.2138 31.2981C72.4636 31.3918 72.6198 31.6311 72.6198 31.9017V47.5251V47.5147Z" fill="#9DADF2"/>
</g>
</g>
</svg>
